# xmcd
#
# Track frame offsets:
#       150
#       16322
#       31649
#       52501
#       72928
#       93659
#       113675
#       130924
#       149650
#       171245
#       191149
#       212164
#
# Disc length: 3097 seconds
#
# Revision: 1
# Processed by: cddbd v1.4PL0 Copyright (c) Steve Scherf et al.
# Submitted via: MusiCat 1.1
#
DISCID=a60c170c
DTITLE=Ilse De Lange - Clean up
DYEAR=1900
DGENRE=
TTITLE0=All Alone
TTITLE1=Thank you
TTITLE2=Deja vu
TTITLE3=New beginning
TTITLE4=Heavenless
TTITLE5=Follow
TTITLE6=Clean up
TTITLE7=Machine people
TTITLE8=Not waiting for you
TTITLE9=No reason to be shy
TTITLE10=Nobody really knows
TTITLE11=Here I am
EXTD=\n\n
EXTT0=
EXTT1=
EXTT2=
EXTT3=
EXTT4=
EXTT5=
EXTT6=
EXTT7=
EXTT8=
EXTT9=
EXTT10=
EXTT11=
PLAYORDER=
